<svg width="728" height="635" viewBox="0 0 728 635" fill="none" xmlns="http://www.w3.org/2000/svg">
<path d="M228.872 634.729C224.817 634.729 220.598 634.583 216.229 634.285C96.3381 626.08 86.4284 528.361 110.345 489.382C127.345 505.46 145.455 519.827 157.31 521.5C157.735 521.559 158.166 521.589 158.598 521.589C176.493 521.591 202.344 471.516 219.002 434.524L219.006 434.519C219.165 434.277 224.472 426.242 232.716 426.242C233.927 426.242 235.201 426.416 236.532 426.813C247.059 429.957 285.849 467.341 303.702 476.8C303.702 476.8 279.775 478.058 271.957 488.355C264.139 498.652 242.347 508.496 238.394 510.126C234.438 511.754 232.374 509.933 228.697 512.42C225.021 514.909 219.457 517.983 219.457 517.983C219.457 517.983 211.805 518.03 206.991 518.7C204.911 518.99 202.107 518.895 199.481 519.627C196.03 520.597 192.882 522.986 192.068 529.548C191.904 530.869 191.83 532.269 191.83 533.717C191.834 544.947 196.222 559.192 196.316 563.865C196.418 569.142 200.458 604.061 211.543 611.126C214.484 612.998 216.766 613.849 218.504 613.849C220.077 613.849 221.202 613.153 221.967 611.886C222.892 610.365 223.294 608.022 223.317 605.078C223.337 602.972 223.163 600.553 222.848 597.913C221.351 585.301 221.149 556.345 231.629 549.34C231.629 549.342 231.629 549.342 231.629 549.342C231.629 549.342 235.029 547.457 238.288 546.466C242.818 545.092 252.364 542.508 254.057 539.294C255.749 536.079 314.718 523.342 314.718 523.342C314.718 523.342 360.017 514.124 363.534 492.051C367.052 469.976 275.074 370.78 275.074 370.78L274.946 370.207C278.32 369.193 280.261 368.545 280.261 368.545C280.261 368.545 279.394 364.384 278.041 357.477C277.361 354.015 276.563 349.862 275.688 345.199C272.01 325.718 267.032 297.332 264.209 273.003C261.078 246.215 254.68 227.279 247.7 213.999C246.007 215.565 244.231 216.929 242.358 218.071C244.226 216.931 246.005 215.557 247.697 213.996C247.699 213.996 247.699 213.996 247.699 213.998C254.194 208.002 259.409 199.227 263.462 190.261C263.571 190.261 263.679 190.261 263.788 190.261C308.915 190.261 359.961 198.814 407.258 212.967C422.975 217.669 438.444 219.397 453.146 219.397C462.345 219.397 471.241 218.721 479.712 217.674C481.336 223.824 484.427 235.222 487.681 245.511H487.685C489.063 249.869 490.468 254.027 491.804 257.503C489.436 259.476 488.032 260.819 488.032 260.819C487.893 262.182 487.828 263.598 487.828 265.053C487.83 265.58 487.839 266.11 487.856 266.646C488.201 277.091 491.748 289.197 496.29 298.098C489.337 309.164 473.543 359.141 468.7 383.715C462.398 415.696 454.831 442.768 451.822 453.088L451.813 453.107C450.973 455.99 450.489 457.562 450.489 457.562C452.792 460.624 455.88 463.376 459.56 465.851C459.833 481.957 460.95 508.404 465.097 527.563C465 527.908 464.902 528.249 464.805 528.591C448.162 524.663 432.725 521.812 419.446 520.894C417.492 520.757 415.593 520.692 413.738 520.692C375.241 520.692 357.525 549.203 335.187 577.71C312.846 606.221 285.89 634.729 228.872 634.729ZM659.786 573.256C651.788 563.811 639.284 553.31 634.673 551.397C627.988 548.618 623.837 546.998 615.894 540.286C610.764 535.948 605.568 534.221 602.1 534.221C600.202 534.221 598.821 534.737 598.25 535.626C597.979 536.05 597.569 536.715 597.066 537.53C595.093 540.75 591.757 546.303 590.476 548.44C590.277 548.291 590.111 548.212 589.987 548.212C589.975 548.212 589.963 548.212 589.952 548.214C588.65 548.381 584.704 549.257 580.713 549.257C579.051 549.257 577.38 549.104 575.89 548.688C575.235 548.504 574.648 548.419 574.116 548.419C570.542 548.419 569.48 552.256 566.669 555.553C566.316 555.969 565.894 556.333 565.423 556.652C551.419 552.732 537.045 548.486 522.762 544.33C526.382 538.349 530.928 531.872 536.472 525.73C547.816 513.159 552.062 497.217 553.647 487.54C558.461 487.8 561.318 487.858 561.318 487.858C561.318 487.858 560.2 474.571 559.956 459.87C567.75 458.848 575.26 456.283 581.529 451.584C588.892 446.062 596.876 429.657 603.293 409.36C605.39 408.346 608.56 406.282 610.984 402.374C617.751 408.169 625.538 412.23 632.304 414.993C647.225 469.935 694.648 505.719 689.319 550.724C687.579 565.416 676.639 571.949 659.786 573.256ZM147.788 461.999C147.788 461.999 141.624 455.491 129.551 448.482C128.571 419.634 107.233 382.888 96.9696 343.347C87.8404 308.175 96.2593 279.234 116.194 254.301C116.947 260.01 118.182 266.093 119.793 272.35C118.676 277.53 117.875 281.935 117.34 285.159C116.724 288.83 116.45 290.973 116.45 290.973C116.45 290.973 118.183 291.336 120.979 291.82C119.992 298.477 119.408 303.791 119.408 303.791C118.786 304.918 118.211 306.183 117.679 307.562L117.68 307.564C111.024 324.873 112.112 345.768 111.785 356.458C111.518 365.085 112.43 380.922 112.43 380.922L127.071 385.932C127.071 385.932 127.765 382.621 129.329 377.448L129.331 377.444C129.505 376.865 129.692 376.258 129.892 375.63C131.533 370.458 133.936 363.831 137.258 356.918C140.353 350.477 142.659 342.975 144.832 333.517C152.551 346.881 160.477 356.894 166.812 360.073C167.055 360.196 167.298 360.314 167.542 360.43C165.806 369.164 164.326 374.925 164.326 374.925C164.326 374.925 165.079 375.082 166.311 375.338C164.078 384.103 161.957 394.102 160.869 403.712C158.913 420.978 147.788 461.999 147.788 461.999ZM628.486 370.297C626.368 369.144 624.985 368.48 624.985 368.48L621.244 363.458L614.782 354.793C617.131 332.511 616.002 312.185 609.108 301.112C597.791 282.937 568.686 279.172 546.511 279.172C541.93 279.172 537.641 279.332 533.868 279.56L518.569 246.352L516.957 242.853C516.957 242.853 510.669 228.056 504.276 213.618C508.854 212.707 513.223 211.774 517.351 210.89C528.389 208.529 539.545 206.495 550.444 205.306C542.385 215.104 546.131 227.905 553.072 239.35C562.371 254.698 577.4 267.612 577.4 267.612C577.4 267.612 601.064 255.878 601.062 236.011C601.062 232.746 600.422 229.262 598.936 225.575C596.106 218.56 592.633 213.437 588.866 209.75V209.745H588.861C586.77 207.695 584.587 206.084 582.374 204.834C610.127 207.783 632.715 221.384 641.612 256.867C648.616 284.8 642.165 317.608 635.354 338.351C631.64 349.664 629.449 360.284 628.486 370.297ZM242.316 218.096C242.32 218.094 242.325 218.092 242.327 218.09C242.323 218.092 242.32 218.094 242.316 218.096Z" fill="#E8F9FF"/>
<path d="M404.372 156.844H342.311C342.311 156.844 345.508 135.754 354.464 135.754C354.638 135.754 354.816 135.763 354.994 135.779C357.584 136.016 359.346 138.711 360.501 141.605C360.842 142.457 361.587 142.874 362.33 142.874C363.139 142.874 363.945 142.378 364.215 141.41C366.691 132.505 371.756 118.91 379.605 118.91C387.723 118.91 387.991 134.463 387.401 143.936C387.345 144.845 388.056 145.433 388.783 145.433C389.196 145.433 389.613 145.243 389.897 144.813C391.784 141.964 394.432 139.213 397.635 139.213C398.068 139.213 398.511 139.264 398.964 139.371C406.365 141.126 404.372 156.844 404.372 156.844Z" fill="#E8F9FF"/>
<path d="M62.0619 362.975H0C0 362.975 3.19896 341.888 12.1524 341.888C12.3274 341.888 12.5033 341.895 12.6831 341.91C15.2739 342.148 17.0354 344.844 18.1902 347.737C18.5303 348.591 19.2762 349.007 20.0185 349.007C20.8292 349.007 21.6352 348.51 21.9038 347.544C24.3798 338.636 29.4452 325.042 37.294 325.042C45.4121 325.042 45.68 340.595 45.0913 350.068C45.0352 350.978 45.7455 351.565 46.4712 351.565C46.8849 351.565 47.3026 351.375 47.5866 350.946C49.4719 348.095 52.1208 345.346 55.3225 345.346C55.7562 345.346 56.1993 345.397 56.653 345.504C64.0548 347.257 62.0619 362.975 62.0619 362.975Z" fill="#E8F9FF"/>
<path d="M720.643 275.403H658.581C658.581 275.403 661.78 254.315 670.735 254.315C670.909 254.315 671.085 254.322 671.265 254.339C673.855 254.575 675.617 257.271 676.772 260.164C677.112 261.018 677.858 261.434 678.599 261.434C679.41 261.434 680.216 260.937 680.486 259.969C682.961 251.063 688.027 237.469 695.876 237.469C703.994 237.469 704.262 253.022 703.672 262.495C703.617 263.405 704.327 263.992 705.052 263.992C705.466 263.992 705.884 263.802 706.168 263.374C708.053 260.523 710.703 257.774 713.904 257.774C714.337 257.774 714.78 257.825 715.233 257.932C722.636 259.685 720.643 275.403 720.643 275.403Z" fill="#E8F9FF"/>
<path d="M634.058 633.187C634.058 633.187 644.507 631.293 643.893 617.091C643.279 602.889 638.668 583.324 629.449 577.644C620.226 571.963 613.496 580.168 613.496 580.168L634.058 633.187Z" fill="#6D7098"/>
<path d="M592.871 577.645C593.179 582.379 597.481 589.32 606.703 594.37C615.924 599.422 620.842 617.409 624.986 625.296C626.891 628.922 628.961 630.882 630.643 631.947C632.621 633.187 634.059 633.187 634.059 633.187C634.059 633.187 634.111 631.941 634.119 629.788C634.148 624.667 633.926 614.407 632.152 603.52C629.629 588.06 620.703 582.69 620.703 582.69C619.075 579.841 615.566 577.81 611.571 576.526C605.033 574.431 597.194 574.336 594.157 575.917C593.3 576.358 592.825 576.939 592.871 577.645Z" fill="#A3A2C0"/>
<path d="M628.597 600.997C630.776 610.469 631.763 626.101 630.643 631.947C632.621 633.187 634.059 633.187 634.059 633.187C634.059 633.187 634.673 618.985 632.152 603.52C629.628 588.06 620.703 582.69 620.703 582.69C619.075 579.841 615.566 577.811 611.571 576.527C616.852 581.961 626.747 592.979 628.597 600.997Z" fill="#2F2A42"/>
<path d="M630.643 631.947C628.961 630.882 626.891 628.922 624.985 625.296C620.842 617.409 615.924 599.422 606.703 594.37C600.09 590.748 596.007 586.154 594.113 582.098C595.336 581.598 596.72 581.113 597.94 580.713C601.223 584.637 605.987 589.743 610.085 591.846C617.154 595.473 621.302 603.952 623.761 615.672C625.615 624.502 628.428 627.371 631.016 628.586C630.939 629.902 630.816 631.042 630.643 631.947Z" fill="#878BA8"/>
<path d="M634.06 633.187C634.06 633.187 634.06 633.187 634.058 633.187C634.001 633.187 632.581 633.162 630.643 631.947C630.816 631.042 630.939 629.902 631.016 628.586C631.863 628.983 632.684 629.205 633.442 629.4C633.687 629.461 633.912 629.593 634.119 629.788C634.111 631.941 634.06 633.187 634.06 633.187Z" fill="#2F2A42"/>
<path d="M518.609 281.055C518.609 281.055 589.785 270.08 609.108 301.112C628.429 332.146 602.474 435.877 581.529 451.584C560.584 467.29 525.782 459.148 512.759 449.276C499.735 439.402 493.693 296.041 518.609 281.055Z" fill="#2F2A42"/>
<path d="M601.064 410.224C601.064 410.224 610.083 408.014 613.311 397.127L602.554 392.235C602.554 392.235 598.342 403.438 601.064 410.224Z" fill="#31477D"/>
<path d="M601.064 391.132C615.816 414.173 649.118 420.164 649.118 420.164C656.01 418.095 665.197 408.249 674.286 396.24H674.29C691.55 373.413 708.44 342.766 708.44 342.766L694.609 338.034C694.609 338.034 670.324 365.57 659.878 371.561C649.426 377.56 646.351 383.241 646.351 383.241C645.263 382.024 644.006 380.836 642.649 379.691C635.223 373.399 624.986 368.48 624.986 368.48C613.151 365.081 601.064 391.132 601.064 391.132Z" fill="#F39C72"/>
<path d="M601.064 391.132C615.816 414.173 649.118 420.164 649.118 420.164C656.01 418.095 665.197 408.249 674.286 396.24C674.286 396.24 658.056 413.944 647.734 415.432C637.416 416.916 617.867 402.493 615.895 396.969C613.927 391.444 616.836 377.39 624.986 368.48C613.151 365.081 601.064 391.132 601.064 391.132Z" fill="#EC7857"/>
<path d="M459.508 451.584C459.508 451.584 458.732 498.157 465.097 527.564C471.467 556.972 498.666 479.417 498.666 479.417C498.666 479.417 474.289 457.441 459.508 451.584Z" fill="#2F2A42"/>
<path d="M554.582 478.864C554.582 478.864 553.99 506.321 536.472 525.73C518.954 545.136 511.428 567.861 511.428 567.861C511.428 567.861 537.653 555.553 554.582 558.866C554.582 558.866 563.444 559.338 566.669 555.553C569.897 551.766 570.819 547.267 575.89 548.688C580.962 550.108 588.108 548.451 589.952 548.214C591.797 547.977 603.553 567.152 601.247 579.694C601.247 579.694 592.027 582.299 590.874 583.955C589.721 585.612 583.037 592.712 578.887 592.476C574.738 592.239 563.672 598.867 563.672 598.867C563.672 598.867 506.652 621.144 501.434 624.901C492.642 631.235 451.182 638.156 447.492 614.251C443.803 590.347 479.995 476.733 485.067 464.427C490.138 452.118 548.489 463.952 554.582 478.864Z" fill="#2F2A42"/>
<path d="M502.734 557.655L504.342 558.26C504.927 556.619 505.642 554.871 506.467 553.069L504.921 552.321C504.072 554.172 503.336 555.966 502.734 557.655Z" fill="#2F80ED"/>
<path d="M587.036 555.274L587.402 556.988C589.095 556.609 590.921 556.241 592.832 555.899L592.541 554.169C590.604 554.515 588.753 554.885 587.036 555.274Z" fill="#2F80ED"/>
<path d="M502.284 571.179L500.585 571.373L500.608 571.568C500.899 573.992 501.61 575.801 502.782 577.103L504.036 575.908C503.131 574.903 502.548 573.372 502.303 571.346L502.284 571.179Z" fill="#2F80ED"/>
<path d="M515.791 576.342L516.253 578.034C518.01 577.531 519.859 576.922 521.602 576.34L521.074 574.67C519.347 575.244 517.517 575.848 515.791 576.342Z" fill="#2F80ED"/>
<path d="M514.443 535.512C513.36 537.179 512.34 538.8 511.408 540.329L512.858 541.261C513.781 539.747 514.793 538.14 515.866 536.487L514.443 535.512Z" fill="#2F80ED"/>
<path d="M510.865 544.62L509.394 543.728C508.397 545.461 507.476 547.149 506.657 548.748L508.171 549.567C508.977 547.993 509.883 546.329 510.865 544.62Z" fill="#2F80ED"/>
<path d="M546.326 476.993L544.641 476.693C544.326 478.546 543.96 480.415 543.548 482.247L545.214 482.641C545.635 480.779 546.006 478.878 546.326 476.993Z" fill="#2F80ED"/>
<path d="M521.205 528.553L519.811 527.535C518.646 529.215 517.599 530.75 516.61 532.227L518.018 533.223C519.003 531.753 520.047 530.227 521.205 528.553Z" fill="#2F80ED"/>
<path d="M525.333 519.697C524.251 521.22 523.154 522.761 522.059 524.319L523.446 525.347C524.54 523.794 525.631 522.255 526.714 520.734L525.333 519.697Z" fill="#2F80ED"/>
<path d="M503.194 561.95L501.542 561.492C501.01 563.521 500.669 565.464 500.532 567.261L502.238 567.398C502.368 565.706 502.688 563.874 503.194 561.95Z" fill="#2F80ED"/>
<path d="M506.914 577.452L506.59 579.177C507.235 579.306 507.949 579.371 508.708 579.371C509.812 579.371 511.03 579.237 512.433 578.97L512.12 577.243C509.974 577.654 508.279 577.719 506.914 577.452Z" fill="#2F80ED"/>
<path d="M552.714 569.83L553 571.561C554.861 571.239 556.716 570.823 558.51 570.329L558.067 568.632C556.326 569.114 554.524 569.514 552.714 569.83Z" fill="#2F80ED"/>
<path d="M561.689 567.492L562.25 569.152C564.134 568.481 565.892 567.728 567.482 566.909L566.717 565.339C565.193 566.122 563.502 566.848 561.689 567.492Z" fill="#2F80ED"/>
<path d="M524.745 573.451L525.26 575.128C527.397 574.433 529.03 573.946 530.555 573.546L530.132 571.843C528.575 572.251 526.912 572.746 524.745 573.451Z" fill="#2F80ED"/>
<path d="M543.485 570.677L543.5 572.434C545.354 572.418 547.25 572.305 549.132 572.105L548.954 570.359C547.127 570.554 545.286 570.661 543.485 570.677Z" fill="#2F80ED"/>
<path d="M577.852 557.967L578.471 559.605C579.932 559.022 581.688 558.45 583.687 557.907L583.251 556.208C581.188 556.769 579.373 557.361 577.852 557.967Z" fill="#2F80ED"/>
<path d="M572.501 561.207C571.846 561.94 570.985 562.683 569.943 563.414L570.908 564.865C572.058 564.056 573.018 563.224 573.762 562.393C574.099 562.015 574.568 561.631 575.153 561.248L574.239 559.763C573.524 560.229 572.941 560.714 572.501 561.207Z" fill="#2F80ED"/>
<path d="M542.621 486.05C542.133 487.888 541.594 489.711 541.018 491.466L542.639 492.026C543.226 490.238 543.775 488.383 544.27 486.51L542.621 486.05Z" fill="#2F80ED"/>
<path d="M527.609 516.506L528.989 517.542C530.106 515.975 531.205 514.431 532.267 512.922L530.881 511.893C529.819 513.4 528.724 514.939 527.609 516.506Z" fill="#2F80ED"/>
<path d="M537.358 504.663L535.851 503.834C534.97 505.515 534.029 507.145 533.056 508.679L534.488 509.639C535.488 508.064 536.453 506.39 537.358 504.663Z" fill="#2F80ED"/>
<path d="M537.56 500.342L539.107 501.088C539.887 499.386 540.631 497.601 541.317 495.783L539.721 495.148C539.05 496.93 538.322 498.676 537.56 500.342Z" fill="#2F80ED"/>
<path d="M533.964 570.995L534.252 572.727C536.258 572.376 537.976 572.246 539.599 572.33L539.687 570.577C537.936 570.484 536.097 570.623 533.964 570.995Z" fill="#2F80ED"/>
<path d="M457.404 139.921L464.357 170.347L464.398 170.535C464.398 170.535 464.854 176.17 466.353 183.611C468.021 191.9 470.988 202.438 476.055 209.926C476.828 211.076 477.653 212.155 478.534 213.14C478.534 213.14 482.937 230.508 487.681 245.511H487.685C490.478 254.348 493.39 262.367 495.594 265.525C495.594 265.525 523.688 260.104 516.958 242.853C516.958 242.853 507.4 220.364 499.872 203.787L499.867 203.771C498.409 200.562 497.027 197.575 495.806 195.014L487.192 174.833L483.066 165.163L470.544 135.817L457.404 139.921Z" fill="#F39C72"/>
<path d="M487.685 245.511C490.478 254.348 493.39 262.367 495.593 265.525C495.593 265.525 523.688 260.104 516.957 242.853C516.957 242.853 507.399 220.363 499.872 203.787C500.05 204.43 506.63 228.128 504.66 234.789C502.664 241.543 496.827 247.905 487.685 245.511Z" fill="#EC7857"/>
<path d="M487.856 266.646C488.27 279.186 493.301 294.126 499.128 303.03C502.642 306.831 507.035 306.817 511.526 304.834C522.945 299.802 535.023 282.069 535.023 282.069L518.569 246.352L516.957 242.853C507.661 245.458 498.247 252.251 492.784 256.697C489.828 259.1 488.032 260.819 488.032 260.819C487.842 262.674 487.791 264.629 487.856 266.646Z" fill="#56CCF2"/>
<path d="M496.29 298.098C491.748 289.197 488.201 277.091 487.856 266.646C487.839 266.11 487.83 265.58 487.828 265.053C487.828 263.598 487.893 262.182 488.032 260.819C488.032 260.819 489.828 259.1 492.784 256.697C494.24 263.474 497.84 278.714 503.107 290.913C500.303 293.176 497.901 295.57 496.362 297.985C496.338 298.022 496.314 298.059 496.29 298.098Z" fill="#2D9CDB"/>
<path d="M487.856 266.646C495.551 258.803 513.158 249.207 518.569 246.352L516.957 242.853C502.637 246.869 488.032 260.819 488.032 260.819C487.842 262.674 487.791 264.629 487.856 266.646Z" fill="#2F2A42"/>
<path d="M450.489 457.562C471.899 486.027 561.318 487.858 561.318 487.858C561.318 487.858 558.149 450.182 561.318 431.526C564.804 411.014 567.822 380.875 567.822 380.875C576.001 387.014 588.495 398.442 595.608 405.079C598.92 408.17 601.064 410.224 601.064 410.224C603.308 399.647 606.417 391.639 609.652 385.612C616.991 371.941 624.986 368.48 624.986 368.48L621.244 363.458L594.103 327.064L564.938 302.254L559.915 297.985L536.965 282.887L527.569 276.706C527.569 276.706 503.278 287.144 496.362 297.985C489.447 308.82 473.561 359.056 468.7 383.715C462.398 415.696 454.831 442.768 451.822 453.088L451.813 453.107C450.973 455.99 450.489 457.562 450.489 457.562Z" fill="#56CCF2"/>
<path d="M561.318 487.858C561.318 487.858 554.49 487.717 544.162 486.916C543.591 486.87 543.016 486.825 542.424 486.777C514.968 484.527 465.659 477.729 450.489 457.562C450.489 457.562 450.973 455.99 451.813 453.107L451.822 453.088C451.822 453.088 463.476 464.662 486.629 466.238C487.909 466.325 489.194 466.369 490.482 466.369C512.52 466.369 535.436 453.487 542.465 424.268C548.215 400.369 564.915 352.943 564.915 352.943C578.309 368.175 609.652 385.612 609.652 385.612C608.016 388.658 606.413 392.21 604.939 396.345C603.495 400.39 602.174 404.993 601.064 410.224C601.064 410.224 598.92 408.17 595.608 405.079C588.495 398.442 576.001 387.014 567.822 380.875C567.822 380.875 564.804 411.014 561.318 431.526C560.262 437.737 559.91 446.06 559.91 454.397C559.908 471.096 561.318 487.858 561.318 487.858Z" fill="#2D9CDB"/>
<path d="M550.663 307.801C555.965 306.729 558.659 303.699 562.685 300.339L559.915 297.985L535.436 278.03C532.189 280.147 528.134 282.225 527.571 290.694C526.719 303.476 539.846 309.984 550.663 307.801Z" fill="#2F2A42"/>
<path d="M595.608 405.079C598.92 408.17 601.064 410.224 601.064 410.224C608.393 375.667 624.985 368.48 624.985 368.48L621.244 363.458C614.406 368.48 600.172 381.47 595.608 405.079Z" fill="#2F2A42"/>
<path d="M578.309 268.749C578.309 268.749 578.786 282.464 563.393 285.276C563.393 285.276 567.244 267.329 578.309 268.749Z" fill="#2F2A42"/>
<path d="M553.072 239.35C562.371 254.698 577.4 267.612 577.4 267.612C577.4 267.612 609.479 251.706 598.936 225.575C596.106 218.56 592.633 213.437 588.866 209.75V209.745H588.861C572.817 194.015 551.435 204.178 551.435 204.178C542.099 214.11 545.861 227.46 553.072 239.35Z" fill="#56CCF2"/>
<path d="M588.861 209.749L588.862 209.75V209.749H588.861Z" fill="#4081A7"/>
<path d="M577.401 267.612C577.401 267.612 562.371 254.698 553.072 239.35C557.244 242.516 562.154 243.944 567.136 243.944C575.098 243.944 583.245 240.299 588.861 234.281C597.897 224.6 589.051 210.054 588.866 209.75C592.633 213.437 596.106 218.56 598.936 225.575C600.422 229.262 601.062 232.746 601.062 236.011C601.064 255.878 577.401 267.612 577.401 267.612Z" fill="#2D9CDB"/>
<path d="M577.224 232.379C577.224 232.379 568.84 187.842 542.007 189.864C516.881 191.758 536.457 225.9 536.457 225.9C536.457 225.9 572.729 236.535 577.224 232.379Z" fill="#2F2A42"/>
<path d="M544.059 216.624C544.059 216.624 532.548 218.978 533.624 229.865C533.624 229.865 543.373 223.929 544.059 216.624Z" fill="#2F2A42"/>
<path d="M564.134 282.568L559.915 297.983C559.478 300.083 557.894 301.743 555.852 302.203C538.236 306.181 529.845 292.917 531.617 288.268C533.894 287.437 573.11 274.556 580.244 259.082C580.244 259.082 577.744 272.91 564.134 282.568Z" fill="#F39C72"/>
<path d="M533.631 281.898C539.269 284.128 547.211 286.149 555.482 284.644C571.084 281.8 579.209 262.84 579.209 262.84C579.209 262.84 581.813 249.96 578.309 238.059C577.363 234.831 575.962 231.669 573.94 228.862C566.597 218.674 554.401 216.856 547.688 216.199C544.35 215.872 541.122 217.514 539.369 220.45L536.429 225.391L534.464 228.686C534.04 229.396 533.663 230.12 533.321 230.863C532.173 233.368 531.477 236.066 531.273 238.839L531.044 242.068C529.528 244.065 528.356 246.296 527.573 248.664C526.885 250.709 526.483 252.857 526.392 255.044L525.783 269.587C525.558 274.992 528.71 279.954 533.631 281.898Z" fill="#F39C72"/>
<path d="M549.768 233.533C549.768 233.533 562.25 228.686 564.915 239.294L562.963 240.826C562.963 240.826 559.191 232.651 549.262 236.298L549.768 233.533Z" fill="#2F2A42"/>
<path d="M531.044 242.07C529.53 244.067 528.356 246.294 527.571 248.662C530.029 248.137 534.293 248.69 541.445 253.159C541.445 253.159 538.811 247.928 534.773 246.027C533.689 245.516 533.393 244.076 534.187 243.161L539.502 237.03C539.502 237.03 539.292 235.237 537.788 233.923C536.871 233.122 534.948 231.79 533.321 230.866C532.173 233.366 531.478 236.067 531.277 238.843L531.044 242.07Z" fill="#EC7857"/>
<path d="M534.619 228.885C537.488 230.408 539.492 232.337 539.492 232.337L538.771 234.789C536.978 233.115 535.228 232.036 533.584 231.367C532.772 231.037 532.376 230.127 532.729 229.414L532.739 229.387C533.063 228.73 533.906 228.504 534.619 228.885Z" fill="#2F2A42"/>
<path d="M529.785 254.77L551.435 262.072C551.435 262.072 544.147 272.525 533.215 267.271C524.642 263.152 529.785 254.77 529.785 254.77Z" fill="#E8F9FF"/>
<path d="M535.025 282.071C535.025 282.071 548.619 286.204 563.391 270.881C563.391 270.881 563.713 279.114 555.787 287.189C550.02 293.065 539.125 292.094 533.622 291.128C531.964 290.838 531.099 288.942 531.949 287.453L535.025 282.071Z" fill="#EC7857"/>
<path d="M575.187 257.317C575.187 257.317 582.363 251.406 586.615 257.417C590.864 263.426 580.234 279.495 573.334 272.495C566.436 265.497 575.187 257.317 575.187 257.317Z" fill="#F39C72"/>
<path d="M549.472 241.45C549.472 241.45 552.309 238.188 555.638 239.66C560.491 241.806 559.634 246.433 559.634 246.433C559.634 246.433 557.757 237.678 549.472 241.45Z" fill="#2F2A42"/>
<path d="M537.439 239.217C537.439 239.217 535.836 233.642 531.749 237.703C531.749 237.703 535.331 235.54 537.439 239.217Z" fill="#2F2A42"/>
<path d="M536.27 225.308C536.279 225.473 535.899 226.092 535.908 226.264C535.908 226.264 542.915 220.241 555.253 225.131C567.586 230.021 573.635 242.012 573.635 242.012L578.309 238.059C577.363 234.831 575.962 231.669 573.94 228.862C566.597 218.674 554.401 216.856 547.688 216.199C544.35 215.872 541.122 217.514 539.368 220.45L536.27 225.308Z" fill="#EC7857"/>
<path d="M571.43 258.267L575.483 260.161L581.393 254.717C582.324 249.486 578.194 235.521 577.224 232.379C576.704 231.868 575.851 231.365 575.245 230.863C575.245 230.863 571.177 245.311 575.579 250.661L571.43 258.267Z" fill="#2F2A42"/>
<path d="M464.356 170.347L464.398 170.535C464.398 170.535 464.854 176.17 466.353 183.611L487.192 174.833L483.065 165.163L464.356 170.347Z" fill="#EC7857"/>
<path d="M496.504 351.348C495.371 351.348 494.172 351.11 492.904 350.577C477.69 344.187 494.933 316.993 494.933 316.993L511.428 332.116C511.428 332.116 506.652 351.348 496.504 351.348Z" fill="#2D9CDB"/>
<path d="M442.288 186.326L515.71 158.181L497.559 108.262L424.138 136.408L442.288 186.326Z" fill="#2F2A42"/>
<path d="M424.138 136.408L442.288 186.326L515.708 158.181L512.946 157.376L426.224 132.087L424.817 134.997L424.819 135.001L424.138 136.408Z" fill="#2F2A42"/>
<path d="M424.817 134.997L442.151 182.861C443.159 182.472 442.714 182.644 444.375 182.007L470.729 143.675L426.224 132.087L424.817 134.997Z" fill="#E8F9FF"/>
<path d="M444.375 182.007L514.588 155.091L496.437 105.172L426.224 132.088L444.375 182.007Z" fill="#2F2A42"/>
<path d="M449.967 118.852L449.979 118.84C450.824 117.82 452.366 117.122 453.32 117.182C453.531 116.189 454.66 115.459 455.928 115.193C456.668 115.037 457.431 115.181 458.104 115.533C458.68 114.389 460.136 113.709 460.93 114.162C460.93 114.162 461.123 114.247 461.452 114.403C461.722 113.551 462.345 113.11 462.345 113.11H462.35C463.168 111.928 465.501 111.303 466.392 111.81C466.392 111.81 474.164 115.032 474.905 121.183C475.646 127.335 476.744 134.498 473.968 133.476C473.172 133.184 472.389 132.166 471.698 130.783C471.997 134.475 471.822 137.235 470.026 136.575C469.027 136.207 468.047 134.695 467.243 132.752C467.417 135.884 467.113 138.061 465.498 137.465C464.038 136.929 462.62 133.952 461.731 130.759C462.001 134.323 461.794 136.94 460.037 136.294C457.89 135.503 457.276 130.55 455.774 126.545C454.01 121.851 453.604 124.307 451.016 122.589L448.693 123.479C448.207 120.741 449.822 119.005 449.967 118.852Z" fill="#F39C72"/>
<path d="M690.621 345.989C687.353 343.904 684.987 340.63 683.964 336.823C683.67 335.727 683.324 334.568 682.929 333.428C681.391 329.01 682.621 319.542 682.929 315.755C683.235 311.968 685.849 304.709 686.618 303.921C687.384 303.132 691.994 306.494 690.15 311.362C688.306 316.227 689.63 321.638 690.583 323.192C691.534 324.748 695.837 321.908 696.913 319.069C697.987 316.227 707.364 294.769 709.206 294.137C711.051 293.506 712.587 293.978 711.359 299.501C710.129 305.024 704.29 314.65 705.058 317.332C705.826 320.016 707.21 317.806 707.67 316.385C708.132 314.966 715.661 294.655 716.891 293.922C718.121 293.19 721.654 291.923 719.81 300.525C717.967 309.127 712.241 319.621 712.587 321.515C712.934 323.408 720.771 302.461 722.961 301.277C725.151 300.093 726.766 302.224 725.036 307.432C723.306 312.639 718.689 322.735 718.303 323.875C717.976 324.836 718.159 325.646 718.966 325.172C719.774 324.699 724.648 312.401 725.765 311.692C726.88 310.982 729.647 312.284 726.649 320.686C723.652 329.089 721.654 336.533 713.509 344.266C708.483 349.038 706.019 351.93 701.292 351.218C698.463 350.793 694.155 348.245 690.621 345.989Z" fill="#F39C72"/>
<path d="M588.866 322.361C588.866 322.361 590.875 299.61 573.476 294.876C560.999 291.482 539.86 315.082 534.508 341.582C525.044 388.447 546.98 429.318 561.321 434.681C561.321 434.681 574.41 424.268 564.431 410.224C564.431 410.224 537.439 382.28 549.472 342.056C559.496 308.553 575.507 299.926 581.529 316.37L588.866 322.361Z" fill="#2F2A42"/>
<path d="M477.647 349.002L485.106 325.448C485.106 325.448 484.068 284.303 526.343 273.932C525.913 272.555 525.716 271.087 525.78 269.587L526.043 263.314C520.755 263.669 466.866 279.664 477.647 349.002Z" fill="#2F2A42"/>
<path d="M646.351 396.969C645.542 389.57 646.351 383.241 646.351 383.241C645.263 382.024 644.006 380.836 642.649 379.691C640.82 394.207 646.351 396.969 646.351 396.969Z" fill="#EC7857"/>
<path d="M476.055 209.926C476.828 211.076 477.653 212.155 478.534 213.14C478.534 213.14 485.647 208.879 487.698 207.772C487.698 207.772 481.134 207.89 476.055 209.926Z" fill="#EC7857"/>
<path d="M589.952 549.312C593.769 553.015 596.859 561.673 598.864 568.689L598.874 568.717C600.501 574.406 601.409 579.012 601.409 579.012C604.802 582.801 612.543 581.712 624.985 583.1C636.184 584.349 644.031 592.343 652.382 595.784H652.39C653.317 596.174 654.248 596.495 655.189 596.75C660.154 598.09 663.654 597.252 665.558 594.786C667.282 592.555 667.702 588.986 666.714 584.486C664.639 574.998 641.359 554.17 634.673 551.397C627.988 548.618 623.838 546.998 615.894 540.286C607.955 533.573 599.865 533.114 598.25 535.626C597.979 536.05 597.569 536.715 597.066 537.53C594.587 541.578 589.952 549.312 589.952 549.312Z" fill="#A3A2C0"/>
<path d="M597.066 537.53C599.699 537.232 604.153 537.095 607.318 538.983C612.081 541.825 618.844 548.451 626.065 551.922C633.289 555.395 647.121 565.177 654.345 572.121C661.565 579.065 665.816 589.992 663.719 593.578C661.62 597.171 657.798 597.043 652.39 595.784C653.317 596.174 654.248 596.495 655.189 596.75C664.639 599.297 668.79 593.971 666.714 584.485C664.639 574.998 641.359 554.17 634.673 551.397C627.988 548.618 623.837 546.998 615.894 540.286C607.955 533.573 599.864 533.114 598.25 535.626C597.979 536.049 597.569 536.715 597.066 537.53Z" fill="#2F2A42"/>
<path d="M659.509 597.386C658.222 597.386 656.78 597.18 655.189 596.75C656.78 597.179 658.222 597.386 659.509 597.386C660.723 597.386 661.8 597.201 662.734 596.85C661.8 597.201 660.723 597.386 659.509 597.386ZM657.937 596.588C656.328 596.588 654.477 596.27 652.39 595.784H652.382C644.031 592.343 636.184 584.349 624.985 583.1C623.494 582.933 622.067 582.801 620.709 582.694C619.414 582.59 618.18 582.509 617.006 582.437C609.152 581.954 604.006 581.912 601.409 579.012C601.409 579.012 601.399 578.961 601.379 578.861C601.208 578.021 600.328 573.802 598.874 568.717C600.552 573.948 614.124 578.464 623.627 578.464C624.092 578.464 624.548 578.453 624.991 578.432C625.346 578.413 625.692 578.404 626.032 578.404C626.972 578.404 627.858 578.471 628.706 578.596C628.706 578.596 630.063 574.961 630.525 569.909C630.525 569.909 633.002 574.83 631.914 579.377C637.768 581.053 641.058 585.29 648.353 589.636C652.161 591.909 655.774 592.59 658.739 592.59C661.021 592.589 662.918 592.185 664.225 591.793C664.164 592.499 663.996 593.103 663.719 593.578C662.431 595.786 660.492 596.588 657.937 596.588Z" fill="#878BA8"/>
<path d="M662.752 596.843C662.753 596.843 662.754 596.842 662.756 596.842C662.754 596.842 662.753 596.843 662.752 596.843Z" fill="#878BA8"/>
<path d="M659.509 597.386C658.222 597.386 656.78 597.179 655.189 596.75C654.248 596.495 653.317 596.174 652.39 595.784C654.477 596.27 656.328 596.588 657.936 596.588C660.492 596.588 662.431 595.786 663.719 593.578C663.996 593.103 664.164 592.499 664.225 591.793C665.465 591.419 666.174 591.055 666.174 591.055L665.558 594.786C664.851 595.703 663.922 596.393 662.781 596.833C662.773 596.836 662.766 596.838 662.759 596.841C662.756 596.841 662.754 596.843 662.752 596.843C662.747 596.847 662.74 596.848 662.733 596.85C661.799 597.201 660.723 597.386 659.509 597.386Z" fill="#2F2A42"/>
<path d="M42.8739 478.453C45.7776 478.284 48.1752 476.763 50.2336 474.552L50.4279 474.343L50.436 474.337C54.0212 470.376 56.6001 464.344 59.1429 459.803C59.8847 458.468 60.6325 457.262 61.3964 456.273C63.796 453.17 67.9874 444.988 71.6348 437.451C71.8212 437.071 72.0024 436.687 72.1848 436.311C75.7326 428.94 78.6323 422.487 78.6323 422.487C78.6323 422.487 77.287 418.443 75.1358 414.29C74.4757 413.017 73.7378 411.731 72.9385 410.545C71.3388 408.17 69.491 406.212 67.5197 405.59C61.3715 403.647 55.6752 407.833 50.946 413.486C46.3148 419.021 33.5709 442.368 31.4934 452.06C31.4492 452.266 31.4085 452.466 31.3757 452.665C29.2165 464.85 33.2649 479.02 42.8739 478.453Z" fill="#A3A2C0"/>
<path d="M42.8739 478.453C45.8712 478.277 48.3263 476.668 50.4279 474.343C43.7394 477.633 39.6642 475.642 37.3185 472.918C34.3863 469.514 33.283 460.165 34.0481 456.216C35.9113 446.604 42.8419 431.531 46.3662 425.531C49.8908 419.53 56.8801 409.63 63.6717 408.661C67.5597 408.107 70.8435 409.365 72.9385 410.545C71.3388 408.17 69.491 406.212 67.5197 405.59C61.3715 403.647 55.6752 407.833 50.946 413.486C46.2166 419.14 33.023 443.376 31.3757 452.665C29.2165 464.85 33.2649 479.02 42.8739 478.453Z" fill="#2F2A42"/>
<path d="M42.874 478.453C43.879 478.395 44.8234 478.174 45.7135 477.821C44.8227 478.175 43.879 478.395 42.874 478.453ZM45.7215 477.817C45.7261 477.815 45.7308 477.814 45.7349 477.812C45.7301 477.814 45.7261 477.815 45.7215 477.817ZM44.0214 476.055C40.9553 476.055 38.7941 474.632 37.3186 472.918C35.9667 471.348 35.0038 468.516 34.433 465.532C35.4556 467.532 37.3728 468.671 41.2448 468.671C41.3076 468.671 41.3717 468.669 41.4359 468.669C50.7067 468.586 53.3103 458.897 58.2628 448.691C61.5546 441.907 64.987 437.669 66.5982 435.877C66.0962 437.381 65.5823 439.074 65.0398 441.004C65.0398 441.004 62.8752 444.862 66.0481 447.284C66.2146 447.412 66.3689 447.534 66.5112 447.651C64.5271 451.41 62.6981 454.59 61.3964 456.273C60.6325 457.262 59.8848 458.468 59.143 459.803C56.6001 464.344 54.0213 470.376 50.436 474.337L50.428 474.343C47.9481 475.562 45.8278 476.055 44.0214 476.055ZM31.3757 452.665C31.4086 452.466 31.4493 452.266 31.4934 452.06C31.4941 452.06 31.4941 452.06 31.4946 452.06C31.45 452.268 31.4105 452.47 31.3757 452.665Z" fill="#878BA8"/>
<path d="M42.3208 478.471C34.7573 478.469 30.8065 469.124 30.8092 459.164C30.8099 456.996 30.9976 454.799 31.3758 452.665C31.4105 452.47 31.4501 452.268 31.4947 452.06C31.5871 452.022 31.6745 452.002 31.7575 452.002C32.161 452.002 32.4503 452.463 32.5954 453.503C33.2997 458.621 33.0631 462.851 34.4331 465.532C35.0038 468.516 35.9668 471.348 37.3187 472.918C38.7942 474.632 40.9554 476.055 44.0214 476.055C45.8278 476.055 47.9481 475.562 50.4281 474.343L50.2337 474.552C48.8932 475.992 47.4089 477.139 45.7349 477.812C45.7308 477.814 45.7262 477.815 45.7216 477.817C45.7189 477.817 45.7161 477.819 45.7136 477.821C44.8234 478.174 43.8791 478.395 42.874 478.453C42.6869 478.465 42.5031 478.471 42.3208 478.471Z" fill="#2F2A42"/>
<path d="M196.316 563.865C196.418 569.142 200.457 604.061 211.543 611.126C217.143 614.692 220.357 614.553 221.967 611.887C222.892 610.365 223.294 608.022 223.317 605.078C223.337 602.972 223.163 600.553 222.848 597.913C221.329 585.111 221.144 555.472 232.108 549.039C232.108 549.039 230.1 533.747 224.969 524.326C223.431 521.486 221.601 519.179 219.457 517.983C219.457 517.983 211.805 518.03 206.991 518.7C204.911 518.99 202.107 518.895 199.481 519.627C196.03 520.597 192.882 522.986 192.068 529.548C190.629 541.112 196.21 558.59 196.316 563.865Z" fill="#A3A2C0"/>
<path d="M196.316 563.865C196.418 569.142 200.457 604.061 211.543 611.126C217.143 614.692 220.357 614.553 221.967 611.887C219.136 612.009 215.226 611.045 211.721 607.954C206.904 603.704 200.846 579.734 201.202 571.998C201.561 564.264 198.451 550.192 195.724 539.394C193.657 531.222 197.498 523.095 199.481 519.627C196.03 520.597 192.882 522.986 192.068 529.548C190.629 541.112 196.21 558.59 196.316 563.865Z" fill="#2F2A42"/>
<path d="M221.493 611.897C218.71 611.897 215.035 610.876 211.721 607.954C206.904 603.704 200.846 579.734 201.202 571.998C201.561 564.264 198.451 550.192 195.724 539.394C193.657 531.222 197.498 523.095 199.481 519.627C202.107 518.895 204.911 518.99 206.991 518.7C211.805 518.03 219.457 517.983 219.457 517.983C219.425 520.57 219.609 523.081 220.011 525.529C215.232 525.652 207.978 526.798 205.063 532.282C200.543 540.782 208.404 551.4 207.472 564.903C206.537 578.41 207.833 598.861 214.328 602.612C217.336 604.347 220.001 605.213 222.032 605.213C222.494 605.213 222.923 605.169 223.317 605.078C223.294 608.022 222.892 610.365 221.967 611.887C221.811 611.894 221.654 611.897 221.493 611.897Z" fill="#878BA8"/>
<path d="M218.504 613.849C216.766 613.849 214.484 612.998 211.543 611.126C200.457 604.061 196.418 569.142 196.316 563.865C196.222 559.193 191.833 544.947 191.83 533.717C191.83 532.269 191.904 530.869 192.068 529.548C192.882 522.986 196.03 520.597 199.481 519.627C197.498 523.095 193.657 531.222 195.724 539.394C198.451 550.192 201.561 564.264 201.202 571.998C200.846 579.734 206.904 603.704 211.721 607.953C215.035 610.876 218.71 611.897 221.493 611.897C221.654 611.897 221.811 611.894 221.967 611.886C221.202 613.153 220.077 613.849 218.504 613.849Z" fill="#2F2A42"/>
<path d="M197.277 193.825C197.277 193.825 130.532 195.682 117.798 227.251C105.065 258.819 145.196 349.225 166.812 360.073C188.429 370.924 218.925 357.677 229.256 346.486C239.588 335.295 222.407 203.351 197.277 193.825Z" fill="#2F2A42"/>
<path d="M155.608 277.939C155.608 277.939 155.507 290.685 150.424 304.553C150.424 304.553 148.929 313.803 146.603 325.268L146.604 325.275C143.865 338.778 141.202 348.71 137.258 356.919C133.936 363.831 131.532 370.458 129.892 375.63C129.692 376.259 129.505 376.865 129.331 377.444L129.329 377.448C127.765 382.621 127.071 385.932 127.071 385.932L112.43 380.922C112.43 380.922 111.518 365.085 111.785 356.458C112.112 345.768 111.024 324.873 117.68 307.564L117.679 307.562C118.211 306.183 118.786 304.918 119.408 303.791C119.408 303.791 121.283 286.727 123.991 275.457C124.891 271.723 125.878 268.627 126.924 266.997C126.924 266.997 148.603 264.668 155.608 277.939Z" fill="#F39C72"/>
<path d="M128.871 305.345C128.871 305.345 120.348 305.437 117.68 307.564L117.679 307.562C118.211 306.183 118.786 304.918 119.408 303.791C119.408 303.791 125.955 303.396 128.871 305.345Z" fill="#EC7857"/>
<path d="M155.608 277.939C155.608 277.939 155.507 290.685 150.424 304.553C150.424 304.553 148.929 313.803 146.603 325.268C147.502 316.638 146.873 301.151 147.046 289.852C147.164 282.137 140.401 280.328 134.49 278.15C132.03 277.243 127.203 276.304 124.352 275.339L123.991 275.457C124.891 271.723 125.878 268.627 126.924 266.997C126.924 266.997 148.603 264.668 155.608 277.939Z" fill="#EC7857"/>
<path d="M124.907 374.224L138.935 384.439C140.42 385.519 141.315 387.262 141.345 389.131L141.576 403.004C141.602 404.659 140.319 406.02 138.709 406.045C137.361 406.066 136.174 405.133 135.842 403.793L132.61 390.715L129.3 389.473L131.377 397.28L133.933 404.359L140.327 412.572C141.256 413.765 141.025 415.516 139.819 416.412C138.766 417.196 137.311 417.062 136.412 416.1L127.986 407.111L122.347 400.008L126.787 408.928L135.344 422.047C135.91 422.917 135.909 424.052 135.337 424.916C134.458 426.249 132.615 426.43 131.505 425.297L122.231 415.831L116.958 407.391L121.591 422.276L125.695 431.8C126.149 432.85 125.781 434.085 124.828 434.693C123.772 435.369 122.382 435.036 121.726 433.948L115.771 424.057L111.469 412.581L114.242 422.462L115.766 425.831C116.083 426.535 115.787 427.368 115.102 427.695C114.509 427.978 113.804 427.79 113.421 427.245L111.147 424.02L107.769 415.84L112.495 380.778C112.495 380.778 114.462 375.971 124.907 374.224Z" fill="#F39C72"/>
<path d="M129.329 377.448C129.329 377.448 125.008 374.801 119.918 375.466C119.918 375.466 125.391 373.346 129.892 375.63L129.329 377.448Z" fill="#EC7857"/>
<path d="M262.991 167.158C277.919 136.931 271.846 97.2306 270.785 87.1917C270.693 86.3117 270.317 85.0874 269.699 83.5908L269.697 83.5837C264.038 69.777 238.409 32.5462 232.574 24.1375C232.178 23.5666 231.872 23.1327 231.669 22.8446C231.486 22.5741 231.388 22.4371 231.388 22.4371L213.406 31.0338C213.406 31.0338 225.495 44.0132 230.247 60.3055C234.998 76.596 246.369 97.9491 246.369 97.9491C241.364 116.846 240.987 141.57 240.987 141.57C249.681 162.525 262.991 167.158 262.991 167.158Z" fill="#F39C72"/>
<path d="M262.991 167.158C277.919 136.931 271.846 97.2306 270.785 87.1917C270.693 86.3117 270.317 85.0874 269.699 83.5908C269.689 84.0896 269.258 116.054 267.23 126.381C265.186 136.789 261.927 147.717 256.016 149.18C250.101 150.641 244.188 147.195 240.987 141.57C249.681 162.525 262.991 167.158 262.991 167.158Z" fill="#EC7857"/>
<path d="M231.337 23.9197C228.931 26.5388 218.484 33.811 216.959 34.5101C216.427 34.7508 215.711 34.4048 215.006 33.8514C214.308 33.869 209.713 33.9428 207.222 32.7096C205.853 32.0281 205.922 30.0186 206.332 27.8984C203.025 26.9885 196.672 21.6081 196.882 16.6493C197.111 11.246 202.776 10.9913 202.776 10.9913C203.024 4.78707 208.751 5.93583 208.751 5.93583C209.11 3.24123 213.916 2.16098 213.916 2.16098C214.46 -0.127846 217.589 -0.449337 219.42 0.500973C221.25 1.44777 231.948 14.8453 232.377 17.2606C232.806 19.6759 231.337 23.9197 231.337 23.9197Z" fill="#F39C72"/>
<path d="M214.937 25.1264C215.661 28.2496 213.11 28.5851 213.11 28.5851C213.634 28.1934 213.627 26.8671 213.511 25.7236C213.511 25.7236 213.509 24.9455 213.252 24.0092L213.249 24.0004C212.965 22.9798 212.366 21.7713 211.114 21.153C208.857 20.0498 207.805 20.7367 207.805 20.7367L203.427 14.3128C205.732 15.8235 208.768 19.3595 208.768 19.3595C212.801 19.2928 214.233 22.3791 214.713 24.0619C215.507 24.018 216.393 23.6895 216.737 22.5688C217.423 20.3291 216.017 18.1176 216.017 18.1176L209.937 9.3716C209.937 9.3716 218.314 17.7997 218.432 21.009C218.586 25.2669 214.937 25.1264 214.937 25.1264Z" fill="#EC7857"/>
<path d="M216.291 6.8299C216.291 6.8299 221.734 13.8528 222.432 15.7534C223.194 17.8262 221.876 19.8462 220.403 20.2081C218.93 20.5699 218.116 19.783 218.116 19.783L218.068 21.9506C218.068 21.9506 223.717 22.9975 223.796 17.4696C223.833 14.7065 216.291 6.8299 216.291 6.8299Z" fill="#EC7857"/>
<path d="M223.467 16.1854C223.467 16.1854 224.809 17.5661 226.478 17.0584C228.151 16.5508 228.519 15.4071 228.155 14.3462C228.155 14.3462 229.139 15.3896 228.24 16.8528C227.072 18.7605 224.294 18.3407 223.421 18.0807L223.467 16.1854Z" fill="#EC7857"/>
<path d="M229.181 26.4317C229.181 26.4317 231.232 26.0505 232.574 24.1376C232.178 23.5667 231.872 23.1329 231.669 22.8448C231.669 22.8448 230.853 24.6769 229.181 26.4317Z" fill="#EC7857"/>
<path d="M216.378 34.5699C216.378 34.5699 219.006 34.3415 220.497 33.3754C220.497 33.3754 219.112 35.2374 217.242 35.6836L216.378 34.5699Z" fill="#EC7857"/>
<path d="M246.369 97.9492C246.369 97.9492 254.239 96.7213 256.918 94.4272C256.918 94.4272 254.051 101.374 245.468 101.633L246.369 97.9492Z" fill="#EC7857"/>
<path d="M66.0481 447.284C69.2204 449.706 67.7603 450.262 70.8911 451.999C73.9236 453.683 81.8847 460.378 82.3786 460.794L82.402 460.813C103.215 483.505 138.299 518.817 157.31 521.5C175.232 524.029 201.941 472.414 219.002 434.524L219.006 434.519C219.187 434.242 226.143 423.711 236.532 426.813C247.059 429.957 285.849 467.341 303.702 476.8C303.702 476.8 279.775 478.058 271.957 488.355C264.139 498.652 242.347 508.496 238.394 510.126C234.438 511.754 232.373 509.933 228.697 512.42C225.021 514.909 219.457 517.983 219.457 517.983C219.308 529.454 223.476 539.382 231.629 549.342C231.629 549.342 235.029 547.457 238.288 546.466C242.818 545.092 252.364 542.508 254.057 539.294C255.749 536.079 314.718 523.342 314.718 523.342C314.718 523.342 360.017 514.124 363.534 492.051C367.052 469.976 275.074 370.78 275.074 370.78L267.957 338.97L234.755 344.61L234.753 344.596L174.153 349.311C174.153 349.311 163.789 377.915 160.869 403.712C158.913 420.978 147.788 461.999 147.788 461.999C147.788 461.999 137.535 451.177 117.588 442.415C112.49 440.173 107.235 437.73 102.237 435.334L102.242 435.331C102.242 435.331 94.6788 431.431 92.0423 427.672C89.406 423.915 87.7976 425.36 84.9447 424.482C82.0912 423.602 79.6848 420.045 77.7823 420.414C75.879 420.783 75.315 421.742 75.315 421.742C70.4614 426.439 68.2675 429.523 65.0398 441.004C65.0398 441.004 62.8752 444.862 66.0481 447.284Z" fill="#2F2A42"/>
<path d="M120.257 453.754L119.564 454.864C120.979 455.791 122.498 456.882 124.085 458.105L124.857 457.052C123.244 455.811 121.696 454.699 120.257 453.754Z" fill="#2F80ED"/>
<path d="M111.932 449.127L111.332 450.292C112.702 451.036 114.021 451.727 115.255 452.345C115.597 452.517 115.942 452.696 116.29 452.886L116.89 451.723C116.531 451.526 116.172 451.338 115.817 451.159C114.596 450.55 113.289 449.865 111.932 449.127Z" fill="#2F80ED"/>
<path d="M103.092 445.554C104.738 446.546 106.367 447.504 107.935 448.4L108.558 447.247C107 446.358 105.379 445.406 103.743 444.417L103.092 445.554Z" fill="#2F80ED"/>
<path d="M127.107 460.524C128.441 461.63 129.83 462.826 131.355 464.177L132.195 463.183C130.66 461.82 129.259 460.615 127.911 459.498L127.107 460.524Z" fill="#2F80ED"/>
<path d="M142.103 472.259L141.256 473.25C143.094 474.906 144.307 475.908 145.188 476.493C145.39 476.626 145.595 476.744 145.8 476.842L146.344 475.649L145.886 475.386C145.058 474.838 143.893 473.874 142.103 472.259Z" fill="#2F80ED"/>
<path d="M149.437 475.421L150.062 476.572C151.415 475.8 152.789 474.376 154.145 472.34L153.088 471.595C151.843 473.462 150.616 474.748 149.437 475.421Z" fill="#2F80ED"/>
<path d="M135.096 465.8L134.242 466.784C135.455 467.894 136.617 468.971 137.708 469.984L138.376 470.605L139.236 469.626L138.569 469.008C137.474 467.991 136.311 466.91 135.096 465.8Z" fill="#2F80ED"/>
<path d="M95.0443 440.486C96.5693 441.487 98.1618 442.51 99.7776 443.518L100.445 442.392C98.8374 441.387 97.2529 440.374 95.736 439.376L95.0443 440.486Z" fill="#2F80ED"/>
<path d="M72.8291 426.776C72.5035 427.168 72.1834 427.563 71.8721 427.965C72.8744 428.108 74.3446 428.352 75.9459 428.738L76.2379 427.454C74.9602 427.147 73.7767 426.927 72.8291 426.776Z" fill="#2F80ED"/>
<path d="M80.0091 428.594L79.5667 429.831C81.4497 430.542 82.8891 431.37 83.8441 432.285L84.1342 432.557L84.9875 431.573L84.7203 431.322C83.6403 430.286 82.0546 429.367 80.0091 428.594Z" fill="#2F80ED"/>
<path d="M87.968 433.98L87.2108 435.044C88.5132 436.019 90.0603 437.122 91.8071 438.319L92.519 437.222C90.7873 436.037 89.2557 434.946 87.968 433.98Z" fill="#2F80ED"/>
<path d="M172.197 393.327L173.438 393.663C173.91 391.822 174.391 389.977 174.878 388.142L173.64 387.796C173.152 389.637 172.67 391.483 172.197 393.327Z" fill="#2F80ED"/>
<path d="M174.666 383.975L175.901 384.33C176.404 382.48 176.912 380.645 177.419 378.834L176.187 378.47C175.677 380.283 175.169 382.122 174.666 383.975Z" fill="#2F80ED"/>
<path d="M167.719 412.146L168.971 412.432C169.359 410.635 169.778 408.764 170.216 406.869L168.967 406.565C168.528 408.465 168.109 410.343 167.719 412.146Z" fill="#2F80ED"/>
<path d="M169.872 402.709L171.118 403.024C171.547 401.228 172.002 399.363 172.473 397.485L171.229 397.157C170.759 399.04 170.304 400.909 169.872 402.709Z" fill="#2F80ED"/>
<path d="M177.265 374.665L178.496 375.036C179.03 373.172 179.564 371.344 180.092 369.564L178.864 369.179C178.336 370.964 177.8 372.795 177.265 374.665Z" fill="#2F80ED"/>
<path d="M155.009 468.265L156.147 468.873C156.939 467.313 157.721 465.542 158.47 463.61L157.278 463.123C156.546 465.013 155.781 466.742 155.009 468.265Z" fill="#2F80ED"/>
<path d="M182.914 356.167L184.128 356.588C184.775 354.623 185.392 352.812 185.964 351.204L184.758 350.753C184.185 352.371 183.564 354.192 182.914 356.167Z" fill="#2F80ED"/>
<path d="M180.002 365.391L181.227 365.784C181.798 363.903 182.368 362.072 182.917 360.342L181.697 359.935C181.145 361.668 180.575 363.506 180.002 365.391Z" fill="#2F80ED"/>
<path d="M158.6 459.443L159.813 459.87C160.395 458.129 160.953 456.281 161.473 454.379L160.237 454.022C159.722 455.902 159.173 457.725 158.6 459.443Z" fill="#2F80ED"/>
<path d="M165.806 421.647L167.067 421.889C167.387 420.14 167.754 418.258 168.157 416.295L166.901 416.022C166.495 417.995 166.129 419.889 165.806 421.647Z" fill="#2F80ED"/>
<path d="M161.209 450.219L162.455 450.534C162.892 448.704 163.298 446.819 163.662 444.927L162.403 444.672C162.042 446.541 161.64 448.408 161.209 450.219Z" fill="#2F80ED"/>
<path d="M163.093 440.801L164.357 441.018C164.667 439.13 164.937 437.219 165.163 435.338L163.89 435.176C163.666 437.038 163.397 438.93 163.093 440.801Z" fill="#2F80ED"/>
<path d="M164.319 431.247L165.594 431.403C165.79 429.722 166.059 427.828 166.393 425.775L165.128 425.557C164.79 427.632 164.519 429.546 164.319 431.247Z" fill="#2F80ED"/>
<path d="M242.674 420.322C240.766 420.271 238.845 420.549 236.987 421.139L237.365 422.395C239.092 421.849 240.873 421.592 242.641 421.64L242.674 420.322Z" fill="#2F80ED"/>
<path d="M251.284 424.229L251.919 423.084C251.409 422.787 250.923 422.527 250.473 422.309C249.199 421.691 247.902 421.211 246.617 420.881L246.308 422.16C247.51 422.467 248.727 422.919 249.926 423.498C250.345 423.702 250.803 423.948 251.284 424.229Z" fill="#2F80ED"/>
<path d="M254.614 508.468L255.185 509.648C256.858 508.794 258.531 507.918 260.158 507.041L259.563 505.875C257.944 506.746 256.278 507.619 254.614 508.468Z" fill="#2F80ED"/>
<path d="M262.953 504.011L263.568 505.167C265.297 504.199 266.934 503.251 268.433 502.348L267.785 501.211C266.296 502.107 264.671 503.049 262.953 504.011Z" fill="#2F80ED"/>
<path d="M271.061 499.167L271.747 500.28C273.67 499.031 275.226 497.918 276.374 496.969L275.569 495.943C274.46 496.86 272.943 497.946 271.061 499.167Z" fill="#2F80ED"/>
<path d="M222.521 525.104C223.676 524.282 224.802 523.522 225.883 522.833L225.205 521.714C224.254 522.32 223.265 522.988 222.256 523.696C222.342 524.166 222.43 524.635 222.521 525.104Z" fill="#2F80ED"/>
<path d="M228.582 519.717L229.183 520.88C231.037 519.873 232.717 519.134 234.177 518.682L233.807 517.421C232.267 517.897 230.509 518.668 228.582 519.717Z" fill="#2F80ED"/>
<path d="M261.876 432.239C263.172 433.349 264.596 434.595 266.103 435.938L266.945 434.946C265.431 433.593 264.002 432.341 262.697 431.227L261.876 432.239Z" fill="#2F80ED"/>
<path d="M237.463 516.279L237.892 517.519C239.37 516.98 241.124 516.267 243.109 515.405L242.607 514.191C240.647 515.044 238.915 515.747 237.463 516.279Z" fill="#2F80ED"/>
<path d="M246.125 512.608L246.652 513.808C248.278 513.058 249.982 512.243 251.714 511.389L251.159 510.201C249.437 511.05 247.743 511.86 246.125 512.608Z" fill="#2F80ED"/>
<path d="M232.567 424.752C232.988 424.466 233.448 424.176 233.949 423.894L233.332 422.739C232.428 423.251 231.645 423.779 230.995 424.273C231.516 424.436 232.04 424.598 232.567 424.752Z" fill="#2F80ED"/>
<path d="M255.214 425.253L254.478 426.333C255.787 427.275 257.274 428.422 258.897 429.746L259.696 428.715C258.052 427.373 256.545 426.209 255.214 425.253Z" fill="#2F80ED"/>
<path d="M310.537 483.742C309.923 484.213 308.458 484.766 306.063 485.435L306.4 486.707C309.024 485.975 310.537 485.386 311.303 484.8C311.461 484.678 311.614 484.552 311.765 484.417L310.918 483.426L310.537 483.742Z" fill="#2F80ED"/>
<path d="M298.026 463.213L297.223 464.24C298.939 465.655 300.407 466.789 301.709 467.71L302.436 466.624C301.16 465.721 299.718 464.608 298.026 463.213Z" fill="#2F80ED"/>
<path d="M305.693 468.623L305.652 468.602L305.102 469.793L305.146 469.814C306.953 470.685 308.479 471.651 309.683 472.69L310.509 471.68C309.218 470.569 307.598 469.54 305.693 468.623Z" fill="#2F80ED"/>
<path d="M313.168 474.811L312.061 475.479C312.49 476.229 312.774 477 312.908 477.777C313.065 478.676 313.019 479.577 312.771 480.45L314.004 480.819C314.305 479.749 314.364 478.648 314.172 477.545C314.011 476.617 313.674 475.697 313.168 474.811Z" fill="#2F80ED"/>
<path d="M299.593 487.078C298.726 487.289 297.832 487.506 296.927 487.731L297.227 489.01C298.132 488.787 299.023 488.569 299.889 488.36C300.84 488.126 301.762 487.902 302.643 487.684L302.344 486.403C301.463 486.623 300.542 486.848 299.593 487.078Z" fill="#2F80ED"/>
<path d="M287.783 490.204L288.153 491.467C289.739 490.977 291.487 490.484 293.496 489.957L293.177 488.682C291.152 489.212 289.388 489.711 287.783 490.204Z" fill="#2F80ED"/>
<path d="M278.886 493.705L279.479 494.874C280.857 494.134 282.55 493.396 284.518 492.68L284.09 491.438C282.037 492.188 280.335 492.929 278.886 493.705Z" fill="#2F80ED"/>
<path d="M279.789 446.761C278.814 445.851 277.835 444.937 276.859 444.029L275.996 445.004C276.975 445.914 277.952 446.828 278.927 447.736L280.119 448.849L280.981 447.873L279.789 446.761Z" fill="#2F80ED"/>
<path d="M282.976 451.511C284.377 452.812 285.761 454.093 287.118 455.336L287.973 454.354C286.619 453.113 285.236 451.832 283.837 450.532L282.976 451.511Z" fill="#2F80ED"/>
<path d="M295.061 460.703C293.775 459.589 292.397 458.37 290.854 456.977L290.007 457.966C291.557 459.364 292.94 460.59 294.235 461.711L295.061 460.703Z" fill="#2F80ED"/>
<path d="M274 441.375C272.602 440.084 271.215 438.805 269.846 437.561L268.996 438.549C270.361 439.791 271.747 441.064 273.141 442.355L274 441.375Z" fill="#2F80ED"/>
<path d="M280.256 368.544C280.256 368.544 219.524 388.85 186.729 379.751C184.282 379.066 164.335 374.92 164.335 374.92C164.335 374.92 175.591 331.041 172.444 301.899C171.622 294.17 169.843 278.923 164.523 265.081C162.624 260.127 160.674 255.086 158.758 250.185C153.061 235.676 147.757 222.449 145.414 216.652C150.289 213.192 154.275 212.296 155.199 212.12L155.387 212.102C160.776 211.171 167.654 209.714 174.993 207.448H175.01C184.453 204.496 194.666 200.21 203.511 193.957L211.723 189.267L220.345 184.331C220.345 184.331 230.952 188.266 241.969 204.426C239.129 207.887 236.084 211.084 232.817 213.841C237.675 216.968 241.73 218.444 241.73 218.444C243.834 217.232 245.818 215.739 247.7 214C254.68 227.279 261.078 246.215 264.209 273.003C267.032 297.332 272.01 325.718 275.688 345.199C278.306 359.164 280.256 368.544 280.256 368.544Z" fill="#2F80ED"/>
<path d="M191.262 217.706C180.005 216.722 177.422 211.207 175.01 207.447C184.453 204.496 194.667 200.21 203.511 193.957L208.897 190.851C210.436 190.851 214.239 193.762 214.239 199.606C214.239 207.46 206.231 219.023 191.262 217.706Z" fill="#2F2A42"/>
<path d="M246.224 254.339C234.791 254.339 227.279 234.42 227.279 234.42L247.033 225.338C247.033 225.338 262.389 249.029 249.869 253.665C248.615 254.129 247.399 254.339 246.224 254.339Z" fill="#2F80ED"/>
<path d="M206.176 136.424C206.176 136.424 214.47 129.973 211.073 117.026C211.073 117.026 208.288 121.941 205.759 122.431C205.759 122.431 212.171 104.61 192.566 94.6836C192.566 94.6836 194.861 104.487 192.53 107.753C192.53 107.753 187.353 96.4103 179.68 94.0723C179.68 94.0723 180.833 113.948 168.834 117.964C160.275 120.829 149.211 131.038 146.161 147.815C146.161 147.815 141.19 146.341 139.337 148.347C139.337 148.347 145.71 149.449 146.589 153.622C146.589 153.622 143.913 152.231 141.898 153.988C141.898 153.988 146.401 154.943 147.097 158.558C147.792 162.173 164.838 189.818 175.118 194.424C185.398 199.032 206.176 136.424 206.176 136.424Z" fill="#2F2A42"/>
<path d="M179.581 198.619L180.951 206.727C181.3 208.788 182.782 210.465 184.754 210.992C201.761 215.544 209.258 204.693 210.103 200.49C207.915 199.592 168.957 183.41 162.576 168.07C162.576 168.07 166.682 188.692 179.581 198.619Z" fill="#F39C72"/>
<path d="M211.098 153.396C212.501 155.398 213.562 157.611 214.239 159.948C214.833 161.964 215.146 164.074 215.155 166.206L215.218 180.387C215.242 185.662 211.99 190.368 207.13 192.076C201.559 194.032 193.753 195.694 185.755 193.909C170.665 190.54 163.445 171.769 163.445 171.769C163.445 171.769 157.158 152.308 169.814 138.888C178.582 129.592 190.347 127.767 196.75 127.523C199.494 127.419 202.066 128.888 203.409 131.349L208.257 140.233C208.642 140.938 208.986 141.66 209.29 142.398C210.315 144.878 210.895 147.534 210.991 150.244L211.098 153.396Z" fill="#F39C72"/>
<path d="M193.18 144.363C193.18 144.363 181.201 139.167 178.219 149.391L180.063 150.957C180.063 150.957 184.036 143.144 193.572 147.075L193.18 144.363Z" fill="#2F2A42"/>
<path d="M211.098 153.396C212.501 155.398 213.562 157.611 214.239 159.948C211.865 159.342 207.694 159.716 200.567 163.793C200.567 163.793 203.321 158.801 207.323 157.104C208.399 156.649 208.738 155.258 207.999 154.335L203.048 148.165C203.048 148.165 203.318 146.426 204.83 145.205C205.752 144.46 207.674 143.236 209.29 142.398C210.315 144.878 210.895 147.534 210.991 150.244L211.098 153.396Z" fill="#EC7857"/>
<path d="M208.096 140.42C205.249 141.793 203.229 143.594 203.229 143.594L203.84 146.009C205.648 144.448 207.391 143.464 209.015 142.877C209.817 142.587 210.236 141.714 209.92 141.006L209.908 140.98C209.619 140.33 208.806 140.077 208.096 140.42Z" fill="#2F2A42"/>
<path d="M211.863 165.809L190.516 172.089C190.516 172.089 197.231 182.546 208.067 177.851C216.566 174.169 211.863 165.809 211.863 165.809Z" fill="#E8F9FF"/>
<path d="M205.766 192.19C205.766 192.19 192.381 195.692 178.555 180.206C178.555 180.206 177.942 188.211 185.363 196.376C192.786 204.542 210.103 200.49 210.103 200.49L205.766 192.19Z" fill="#EC7857"/>
<path d="M167.563 166.545C167.563 166.545 160.79 160.515 156.434 166.205C152.077 171.892 161.842 187.948 168.813 181.397C175.786 174.847 167.563 166.545 167.563 166.545Z" fill="#F39C72"/>
<path d="M193.178 152.083C193.178 152.083 190.535 148.799 187.24 150.106C182.436 152.01 183.103 156.545 183.103 156.545C183.103 156.545 185.249 148.094 193.178 152.083Z" fill="#2F2A42"/>
<path d="M204.977 150.373C204.977 150.373 206.739 145.004 210.571 149.117C210.571 149.117 207.162 146.872 204.977 150.373Z" fill="#2F2A42"/>
<path d="M164.945 144.7C164.945 144.7 170.139 151.149 165.919 157.882L170.29 168.204L165.768 169.396L162.01 163.67L159.107 148.872C159.107 148.872 162.61 142.102 164.945 144.7Z" fill="#2F2A42"/>
<path d="M274.782 154.908C274.782 154.908 274.234 157.718 273.105 162.18C269.427 176.584 259.556 208.185 241.73 218.444C241.73 218.444 237.675 216.968 232.817 213.841C225.306 209.011 215.897 200.281 216.752 187.071C216.752 187.071 232.047 160.986 238.531 142.629C239.129 140.961 239.643 139.345 240.07 137.816L268.503 151.816L274.782 154.908Z" fill="#2F80ED"/>
<path d="M274.782 154.908C274.782 154.908 274.234 157.718 273.105 162.18C266.433 156.875 245.237 146.02 238.531 142.63C239.129 140.961 239.643 139.345 240.07 137.816L268.503 151.816L274.782 154.908Z" fill="#2F2A42"/>
<path d="M263.462 190.261C263.607 189.943 263.749 189.625 263.889 189.305C263.749 189.623 263.605 189.945 263.462 190.261Z" fill="#333333"/>
<path d="M247.698 213.998C247.698 213.996 247.698 213.996 247.697 213.996C254.193 207.999 259.409 199.223 263.461 190.261C259.409 199.227 254.194 208.002 247.698 213.998Z" fill="#131514"/>
<path d="M247.697 213.996C245.813 210.407 243.885 207.23 241.968 204.423C254.099 189.578 262.297 169.679 266.498 157.766C269.237 159.426 271.559 160.951 273.103 162.178C271.408 168.818 268.394 179.124 263.889 189.305C263.749 189.625 263.607 189.943 263.462 190.261C259.409 199.223 254.193 207.999 247.697 213.996Z" fill="#2F80ED"/>
<path d="M273.386 161.056C274.325 157.251 274.782 154.908 274.782 154.908L268.806 151.966L274.787 154.906C274.787 154.906 274.333 157.25 273.386 161.056Z" fill="#333333"/>
<path d="M273.103 162.178C271.559 160.951 269.237 159.426 266.498 157.766C267.314 155.447 267.981 153.431 268.495 151.813L268.806 151.966L274.782 154.908C274.782 154.908 274.325 157.251 273.386 161.056C273.297 161.418 273.203 161.792 273.103 162.178Z" fill="#2F2A42"/>
<path d="M167.397 239.505C166.867 242.948 166.216 245.302 166.216 245.302L164.523 265.081L162.607 284.122L162.059 289.638C158.826 294.293 147.877 294.714 137.527 293.942V293.924C126.664 293.116 116.45 290.973 116.45 290.973C116.45 290.973 116.724 288.83 117.34 285.159C118.811 276.305 122.284 258.529 128.819 240.295C133.404 227.543 139.956 220.499 145.414 216.652C150.289 213.191 154.275 212.296 155.199 212.12L155.387 212.102C169.45 213.455 168.8 230.353 167.397 239.505Z" fill="#2F80ED"/>
<path d="M162.607 284.122L162.059 289.638C158.826 294.293 147.877 294.714 137.527 293.942V293.924C126.664 293.116 116.45 290.973 116.45 290.973C116.45 290.973 116.724 288.83 117.34 285.159C121.873 286.388 132.67 287.985 142.273 288.115C153.054 288.261 159.322 285.633 162.607 284.122Z" fill="#2F2A42"/>
<path d="M205.925 192.569C205.925 192.569 228.131 189.086 242.233 201.974C256.34 214.86 270.344 241.894 261.817 258.116L265.271 281.612C265.271 281.612 288.495 244.155 263.578 207.866C246.811 183.453 225.38 182.855 214.551 184.496C213.37 187.974 210.713 190.593 207.191 191.846L205.925 192.569Z" fill="#2F2A42"/>
<path d="M152.371 212.938C152.371 212.938 158.73 198.023 170.582 199.743C182.433 201.463 217.914 250.965 210.406 287.368C202.897 323.772 172.228 327.642 172.228 327.642C172.228 327.642 166.288 318.4 172.964 309.805C172.964 309.805 193.117 304.73 198.559 281.031C203.999 257.333 176.574 209.258 166.499 207.785C162.872 207.254 160.143 211.213 160.143 211.213C160.143 211.213 155.878 212.404 152.371 212.938Z" fill="#2F2A42"/>
<path d="M166.311 375.338C165.079 375.082 164.326 374.925 164.326 374.925C164.326 374.925 165.806 369.164 167.542 360.43L167.546 360.432C165.811 369.16 164.335 374.92 164.335 374.92C164.335 374.92 165.084 375.076 166.312 375.333C166.311 375.335 166.311 375.335 166.311 375.338ZM274.946 370.207V370.205C278.316 369.192 280.256 368.544 280.256 368.544C280.256 368.544 279.39 364.382 278.041 357.477C279.394 364.384 280.261 368.545 280.261 368.545C280.261 368.545 278.32 369.194 274.946 370.207Z" fill="#131514"/>
<path d="M167.546 360.432L167.542 360.43C168.468 355.777 169.467 350.28 170.355 344.363C169.469 350.284 168.471 355.777 167.546 360.432Z" fill="#2F2A42"/>
<path d="M211.957 381.997C236.37 381.058 263.672 373.592 274.946 370.205V370.207C263.668 373.596 236.368 381.061 211.957 381.997ZM180.975 378.44C176.113 377.388 169.552 376.014 166.311 375.338C166.311 375.335 166.311 375.335 166.312 375.333C169.551 376.009 176.113 377.385 180.975 378.44Z" fill="#2F2A42"/>
<path d="M207.018 382.096C199.679 382.096 192.737 381.414 186.729 379.745C186.008 379.545 183.774 379.046 180.975 378.44C176.113 377.385 169.551 376.009 166.312 375.333C165.084 375.076 164.335 374.92 164.335 374.92C164.335 374.92 165.811 369.16 167.546 360.432C168.471 355.777 169.469 350.284 170.355 344.363C171.154 339.023 171.864 333.342 172.348 327.626C173.446 327.462 181.92 326.038 190.757 319.616C195.537 331.099 202.622 342.45 213.162 351.292C219.307 356.448 231.67 359.027 243.789 359.027C259.713 359.027 275.216 354.577 275.647 345.676C275.654 345.51 275.664 345.352 275.683 345.202C276.559 349.864 277.361 354.017 278.041 357.477C279.39 364.382 280.256 368.544 280.256 368.544C280.256 368.544 278.316 369.192 274.946 370.205C263.672 373.592 236.37 381.058 211.957 381.997C210.296 382.062 208.647 382.096 207.018 382.096Z" fill="#2F80ED"/>
<path d="M159.374 291.888C160.518 291.282 161.433 290.539 162.059 289.638L162.607 284.122L164.523 265.081C164.525 265.084 164.526 265.088 164.526 265.091L162.061 289.643C161.435 290.543 160.518 291.284 159.374 291.888ZM170.774 289.23C170.374 286.799 169.896 284.219 169.322 281.558C169.896 284.219 170.375 286.797 170.774 289.23Z" fill="#2F2A42"/>
<path d="M172.962 309.805C172.89 307.081 172.726 304.432 172.452 301.892C172.11 298.73 171.611 294.303 170.774 289.23C170.375 286.797 169.896 284.219 169.322 281.558C168.168 276.209 166.624 270.533 164.53 265.072L164.526 265.091C164.526 265.088 164.525 265.084 164.523 265.081L166.216 245.302C166.216 245.302 166.867 242.95 167.397 239.509C170.62 245.163 179.942 262.597 181.033 276.632C181.548 283.221 182.65 292.694 185.295 303.076C178.96 308.295 172.964 309.805 172.964 309.805C172.962 309.805 172.964 309.805 172.962 309.805Z" fill="#2F80ED"/>
<path d="M144.863 288.097C149.526 283.365 154.862 275.659 155.832 264.617C156.349 258.715 157.454 253.964 158.761 250.194C161.936 241.005 166.311 237.643 166.311 237.643C166.311 237.643 166.718 238.309 167.392 239.502C167.394 239.503 167.395 239.505 167.397 239.509C166.867 242.95 166.217 245.302 166.217 245.302L164.523 265.081L162.607 284.122C159.594 285.508 154.075 287.834 144.863 288.097Z" fill="#2F80ED"/>
<path d="M145.171 294.247C142.671 294.247 140.083 294.128 137.53 293.936V293.933C137.53 293.933 140.96 292.057 144.863 288.097C154.075 287.834 159.594 285.508 162.607 284.122L162.059 289.638C161.433 290.539 160.518 291.282 159.373 291.888C156.067 293.636 150.847 294.247 145.171 294.247Z" fill="#2F2A42"/>
<path d="M172.348 327.626C172.856 321.604 173.114 315.541 172.962 309.805C172.964 309.805 172.962 309.805 172.964 309.805C172.964 309.805 178.96 308.295 185.295 303.076C186.66 308.437 188.438 314.042 190.757 319.616C181.92 326.038 173.446 327.462 172.348 327.626Z" fill="#2F2A42"/>
</svg>
